<svg width="135" height="102" viewBox="0 0 135 102" fill="none" xmlns="http://www.w3.org/2000/svg">
<path d="M57.4913 -0.000627172C55.6924 0.158491 50.8312 1.26499 50.8312 1.26499C39.8741 4.09711 37.2823 14.0404 37.2823 14.0404C36.7472 15.7124 36.5042 17.426 36.4327 19.0404V21.2376C36.5781 24.6325 37.3331 27.1674 37.3331 27.1674C40.9931 43.3966 58.9889 70.0635 62.8565 75.6654C63.1309 75.9375 63.3507 75.8393 63.3507 75.8393C63.7681 75.724 63.7354 75.3236 63.7354 75.3236L63.7434 75.3256C69.7005 15.7823 57.4913 -0.000627172 57.4913 -0.000627172ZM77.1749 -0.000627172C77.1749 -0.000627172 64.9125 15.7907 70.8742 75.3686H70.8821C70.9282 75.7468 71.1966 75.8255 71.1966 75.8255C71.5955 75.9801 71.8001 75.5969 71.8001 75.5969L71.8021 75.6007C75.7689 69.8558 93.6621 43.334 97.306 27.1671C97.306 27.1671 99.2816 19.3422 97.3744 14.0401C97.3744 14.0401 94.6656 3.94283 83.6947 1.27448C83.6947 1.27448 80.5329 0.472154 77.1749 -0.000627172ZM20.6144 17.8744C20.6144 17.8744 10.1743 27.7834 9.65541 38.2885H9.65956V39.8802C9.6675 40 9.67355 40.1214 9.68111 40.2434C10.1308 48.7144 16.5034 53.7279 16.5034 53.7279C26.7709 63.7348 51.6324 76.3689 57.4096 79.2356C57.4905 79.2659 57.789 79.3634 57.9643 79.1419C57.9643 79.1419 58.0555 79.0727 58.0971 78.9484V78.6846C58.093 78.6695 58.085 78.6543 58.0775 78.6377C42.2565 44.0759 20.6144 17.8744 20.6144 17.8744ZM114.026 17.8744C114.026 17.8744 92.4479 43.9939 76.6339 78.4857L76.64 78.4837C76.64 78.4837 76.4532 78.8836 76.7552 79.1419C76.7552 79.1419 76.8453 79.2099 76.97 79.2375H77.1888C77.2281 79.2262 77.2703 79.2111 77.3119 79.1827C83.2459 76.2376 107.915 63.6902 118.134 53.7295C118.134 53.7295 124.606 48.5326 124.945 40.1885C125.692 28.5994 114.026 17.8744 114.026 17.8744ZM133.448 52.1869C133.448 52.1869 98.2687 71.066 80.0792 83.3353L80.0854 83.3411C80.0854 83.3411 79.7553 83.5573 79.8705 83.9446C79.8705 83.9446 80.0431 84.2572 80.2944 84.2572C86.8096 84.2686 111.463 84.2982 112.081 84.1829C112.081 84.1829 115.269 84.0555 119.208 82.5423C119.208 82.5423 127.978 79.7543 132.533 69.7981C132.533 69.7981 134.614 65.635 134.644 59.7864V59.5384C134.629 57.2829 134.311 54.786 133.448 52.1869ZM1.18275 52.2749C-2.01807 62.1839 2.29103 70.1683 2.29799 70.1812C6.78861 79.6695 15.3605 82.5444 15.3605 82.5444C19.318 84.1704 23.2765 84.2828 23.2765 84.2828C23.8946 84.3958 47.8916 84.2941 54.3214 84.2638C54.5935 84.2618 54.7433 83.9883 54.7433 83.9883C54.7622 83.9581 54.7788 83.9278 54.7863 83.9002V83.6523C54.733 83.4864 54.591 83.3693 54.591 83.3693L54.5951 83.3672C36.4147 71.102 1.18275 52.2749 1.18275 52.2749ZM53.587 87.3101L12.2023 88.7613C16.6903 96.7617 24.2486 102.979 32.1222 101.07C37.5558 99.7115 49.8652 91.1254 53.9288 88.2241L53.9152 88.2128C54.2312 87.929 54.1183 87.7011 54.1183 87.7011C54.0144 87.3296 53.5871 87.3299 53.5871 87.3299L53.587 87.3101ZM80.9972 87.3403L80.993 87.3554C80.993 87.3554 80.6297 87.4015 80.5282 87.6736C80.5282 87.6736 80.4399 88.0456 80.6844 88.2303L80.6803 88.234C84.6425 91.0753 96.6536 99.4727 102.44 101.103C102.44 101.103 103.317 101.401 104.786 101.455H105.669C109.545 101.319 116.299 99.3271 122.436 88.7828L80.9972 87.3403Z" fill="#CF0A2C"/>
</svg>
